<?xml version="1.0" encoding="UTF-8"?>
<svg width="144px" height="17px" viewBox="0 0 144 17" version="1.1" xmlns="http://www.w3.org/2000/svg" xmlns:xlink="http://www.w3.org/1999/xlink">
    <title>ic_cofu_logo_oneline_light_144dp</title>
    <g id="Drafts-8" stroke="none" stroke-width="1" fill="none" fill-rule="evenodd">
        <g id="Drive-App-|-CoFu-Ad-|-Light-|-Assets" transform="translate(-103.000000, -2741.000000)">
            <g id="graphics" transform="translate(37.000000, 20.000000)"></g>
            <g id="_ios" transform="translate(33.000000, 20.000000)"></g>
            <g id="_android" transform="translate(33.000000, 20.000000)"></g>
            <g id="Group-6-Copy" transform="translate(103.000000, 2741.000000)" fill-rule="nonzero">
                <path d="M0.434956931,5.57394814 C1.88705181,1.28373157 6.54211558,-1.01698323 10.8323666,0.435144521 C15.122575,1.88726275 17.4232775,6.54220551 15.9712023,10.8324048 C14.5191074,15.12258 9.86405156,17.4232792 5.57372519,15.9711994 C4.80456751,15.7108019 4.0846657,15.3422386 3.4313624,14.8753294 C3.04420148,14.5986294 2.95465737,14.0604663 3.23136035,13.673309 C3.50806288,13.2861523 4.04622966,13.1966094 4.43338995,13.473309 C4.94905189,13.8418473 5.51753769,14.132814 6.12627095,14.3389 C9.51502949,15.4858402 13.1919087,13.6685846 14.3388681,10.279924 C15.485818,6.8912265 13.6685701,3.21444287 10.2798642,2.0674586 C6.89112998,0.920468595 3.21425429,2.73772435 2.06729099,6.12642921 C1.74015207,7.09296052 1.64560382,8.10703938 1.78683052,9.10506347 C1.78949582,9.12389864 1.79153953,9.14275439 1.79296377,9.161609 L1.79429086,9.18521126 L1.79844891,9.21700654 L1.80440894,9.2564501 L1.81146618,9.29751449 C1.83468135,9.42508681 1.8683471,9.54548939 1.90991663,9.64733856 C1.96325309,9.77801777 2.02147277,9.85770307 2.04696909,9.86846482 C2.05223415,9.87068715 2.07116217,9.87164276 2.11306962,9.8648844 C2.21072437,9.84913574 2.33977425,9.79825877 2.49250167,9.71163258 L2.54419947,9.68148733 L4.91740887,8.24832606 C4.94969109,8.2288311 4.98299257,8.21155946 5.01714474,8.19655901 L5.03991876,8.18700067 L7.21497552,6.86739884 L7.22982186,6.85650183 L7.25070605,6.84204045 L7.283661,6.82095594 L8.46928831,6.09961447 C8.66632809,5.97974882 8.89009883,5.91738779 9.1705906,5.89546238 C9.33022231,5.88298432 9.50861706,5.88429232 9.71116173,5.89879858 L9.79715955,5.90562219 C10.1684167,5.93785234 10.6170746,6.0114342 11.1472457,6.12537043 C11.3881522,6.17714237 11.6429492,6.23667145 11.9104127,6.30351504 C12.170675,6.36855895 12.4358118,6.43868826 12.7012793,6.51244842 L12.9696936,6.5882275 L13.1665915,6.64540665 L13.3201823,6.69113101 L13.3717168,6.70679684 C13.8265237,6.84682486 14.0817017,7.32903083 13.941672,7.78383405 C13.8061492,8.22399932 13.3495819,8.47789294 12.9058658,8.36533482 L12.8769494,8.35747268 L12.7964828,8.33315651 L12.6197835,8.28092787 L12.4662929,8.23662337 C12.140139,8.14341238 11.8117607,8.05514538 11.4925791,7.97537657 C11.2884767,7.92436795 11.092841,7.87805153 10.9068666,7.83677405 L10.7851647,7.81018567 C10.3522223,7.71714433 9.98464859,7.65511841 9.69812517,7.62706898 L9.6281231,7.62076028 C9.51115663,7.61117708 9.41198285,7.60819401 9.33735082,7.61153357 L9.30488845,7.61350404 L9.2951452,7.6143733 L8.9174334,7.84393848 L9.41757163,8.67046503 C9.58071121,8.94016047 9.65833761,9.24939833 9.64029212,9.55583012 L9.6366463,9.6041846 L9.63168761,9.65015922 L9.62521936,9.69598719 C9.56730771,10.0628076 9.37155137,10.3843376 9.07278412,10.5931553 L9.03916562,10.61589 L9.00331113,10.6384657 L7.95937334,11.2719654 C7.51581623,11.5411157 6.96035203,11.5196577 6.51027654,11.2309435 L6.47496717,11.2075955 L6.44153637,11.1841099 L5.05412122,10.1787693 L3.43291261,11.1579356 C2.71824874,11.5866934 2.04800303,11.7029895 1.45854863,11.4882282 L1.41755544,11.4727074 L1.37682717,11.456111 C1.10400286,11.3409545 0.868038321,11.1586777 0.67320363,10.9178914 C0.528609818,10.7391952 0.410062605,10.5329307 0.314394897,10.298536 C0.22593327,10.0817969 0.160450145,9.85023808 0.116012172,9.60604202 C0.10539351,9.54769022 0.096372041,9.49056494 0.0889289487,9.43500381 L0.082011285,9.37997657 L0.0744337993,9.30765566 L0.0728555684,9.29026028 L0.067356044,9.249201 C-0.0835632599,8.08190476 0.0195022317,6.89819806 0.372821436,5.76507805 L0.403718719,5.66807893 L0.434956931,5.57394814 Z M7.4468673,8.7422423 L6.66414071,9.21728917 L7.28366152,9.66613499 L7.81184587,9.3456008 L7.4468673,8.7422423 Z" id="Combined-Shape-Copy-5" fill="#00CCF0"></path>
                <path d="M24.6864066,12.3047417 C25.9996507,12.3047417 26.8950444,11.8054188 27.5277892,11.1158777 C27.6591136,10.9851027 27.7307451,10.7948845 27.7307451,10.5927776 C27.7307451,10.152898 27.3725877,9.79623878 26.9308601,9.79623878 C26.6920885,9.79623878 26.477194,9.90323654 26.333931,10.0577888 C25.9280192,10.5214458 25.3549672,10.8067731 24.6864066,10.8067731 C23.3015311,10.8067731 22.2509358,9.70112967 22.2509358,8.20316112 C22.2509358,6.70519256 23.3015311,5.59954911 24.6864066,5.59954911 C25.3549672,5.59954911 25.9280192,5.89676509 26.3219924,6.33664475 C26.477194,6.51497434 26.6920885,6.61008345 26.9308601,6.61008345 C27.3725877,6.61008345 27.7307451,6.25342427 27.7307451,5.81354462 C27.7307451,5.61143775 27.6591136,5.40933088 27.5277892,5.27855585 C26.8950444,4.58901477 25.9996507,4.10158056 24.6864066,4.10158056 C22.3583831,4.10158056 20.5079028,5.76599006 20.5079028,8.20316112 C20.5079028,10.6403322 22.3583831,12.3047417 24.6864066,12.3047417 Z M32.4942395,12.3047417 C34.9058331,12.3047417 36.6608047,10.5927776 36.6608047,8.20316112 C36.6608047,5.81354462 34.9058331,4.10158056 32.4942395,4.10158056 C30.0945844,4.10158056 28.3396128,5.81354462 28.3396128,8.20316112 C28.3396128,10.5927776 30.0945844,12.3047417 32.4942395,12.3047417 Z M32.4942395,10.8067731 C31.0257939,10.8067731 30.0826459,9.67735239 30.0826459,8.20316112 C30.0826459,6.7170812 31.0257939,5.59954911 32.4942395,5.59954911 C33.9626851,5.59954911 34.9177717,6.7170812 34.9177717,8.20316112 C34.9177717,9.67735239 33.9626851,10.8067731 32.4942395,10.8067731 Z M43.94334,12.2452985 C44.5163919,12.2452985 44.9819966,11.7816415 44.9819966,11.2109869 L44.9819966,4.99322851 C44.9819966,4.52957157 44.599962,4.14913512 44.1343573,4.14913512 C43.656814,4.14913512 43.286718,4.52957157 43.286718,4.99322851 L43.286718,9.36824777 L39.8722834,4.61279205 C39.6693275,4.3274647 39.3350472,4.14913512 38.9649511,4.14913512 C38.3441449,4.14913512 37.854663,4.64845797 37.854663,5.25477857 L37.854663,11.4012051 C37.854663,11.8529734 38.2366976,12.2452985 38.7142409,12.2452985 C39.1798456,12.2452985 39.5499417,11.8529734 39.5499417,11.4012051 L39.5499417,6.8359676 L43.0957006,11.8054188 C43.286718,12.0788575 43.5971211,12.2452985 43.94334,12.2452985 Z M52.6465665,12.2452985 C53.2196185,12.2452985 53.6852232,11.7816415 53.6852232,11.2109869 L53.6852232,4.99322851 C53.6852232,4.52957157 53.3031886,4.14913512 52.8375838,4.14913512 C52.3600406,4.14913512 51.9899445,4.52957157 51.9899445,4.99322851 L51.9899445,9.36824777 L48.5755099,4.61279205 C48.372554,4.3274647 48.0382737,4.14913512 47.6681777,4.14913512 C47.0473714,4.14913512 46.5578895,4.64845797 46.5578895,5.25477857 L46.5578895,11.4012051 C46.5578895,11.8529734 46.9399242,12.2452985 47.4174675,12.2452985 C47.8830722,12.2452985 48.2531682,11.8529734 48.2531682,11.4012051 L48.2531682,6.8359676 L51.7989272,11.8054188 C51.9899445,12.0788575 52.3003476,12.2452985 52.6465665,12.2452985 Z M60.2395049,12.162078 C60.6454167,12.162078 60.979697,11.8291961 60.979697,11.4249824 C60.979697,11.0326573 60.6454167,10.6997754 60.2395049,10.6997754 L56.9563948,10.6997754 L56.9563948,8.85703628 L60.1559348,8.85703628 C60.5618466,8.85703628 60.8961269,8.53604302 60.8961269,8.13182928 C60.8961269,7.72761554 60.5618466,7.40662228 60.1559348,7.40662228 L56.9563948,7.40662228 L56.9563948,5.68276958 L60.2395049,5.68276958 C60.6454167,5.68276958 60.979697,5.36177632 60.979697,4.96945123 C60.979697,4.55334885 60.6454167,4.23235559 60.2395049,4.23235559 L56.1565097,4.23235559 C55.5834578,4.23235559 55.2611161,4.55334885 55.2611161,5.12400354 L55.2611161,11.2585414 C55.2611161,11.8410847 55.5834578,12.162078 56.1565097,12.162078 L60.2395049,12.162078 Z M66.0177788,12.3047417 C67.3310228,12.3047417 68.2264165,11.8054188 68.8591614,11.1158777 C68.9904858,10.9851027 69.0621173,10.7948845 69.0621173,10.5927776 C69.0621173,10.152898 68.7039598,9.79623878 68.2622323,9.79623878 C68.0234606,9.79623878 67.8085661,9.90323654 67.6653031,10.0577888 C67.2593913,10.5214458 66.6863394,10.8067731 66.0177788,10.8067731 C64.6329032,10.8067731 63.582308,9.70112967 63.582308,8.20316112 C63.582308,6.70519256 64.6329032,5.59954911 66.0177788,5.59954911 C66.6863394,5.59954911 67.2593913,5.89676509 67.6533646,6.33664475 C67.8085661,6.51497434 68.0234606,6.61008345 68.2622323,6.61008345 C68.7039598,6.61008345 69.0621173,6.25342427 69.0621173,5.81354462 C69.0621173,5.61143775 68.9904858,5.40933088 68.8591614,5.27855585 C68.2264165,4.58901477 67.3310228,4.10158056 66.0177788,4.10158056 C63.6897552,4.10158056 61.839275,5.76599006 61.839275,8.20316112 C61.839275,10.6403322 63.6897552,12.3047417 66.0177788,12.3047417 Z M73.2633044,12.2452985 C73.7289091,12.2452985 74.1109438,11.8529734 74.1109438,11.4012051 L74.1109438,5.7184355 L75.7704067,5.7184355 C76.1763185,5.7184355 76.5225374,5.3855536 76.5225374,4.98133987 C76.5225374,4.56523749 76.1763185,4.23235559 75.7704067,4.23235559 L70.7442635,4.23235559 C70.3383517,4.23235559 69.9921328,4.56523749 69.9921328,4.98133987 C69.9921328,5.3855536 70.3383517,5.7184355 70.7442635,5.7184355 L72.4037265,5.7184355 L72.4037265,11.4012051 C72.4037265,11.8529734 72.7857611,12.2452985 73.2633044,12.2452985 Z M82.4918286,12.162078 C82.8977404,12.162078 83.2320207,11.8291961 83.2320207,11.4249824 C83.2320207,11.0326573 82.8977404,10.6997754 82.4918286,10.6997754 L79.2087184,10.6997754 L79.2087184,8.85703628 L82.4082585,8.85703628 C82.8141703,8.85703628 83.1484506,8.53604302 83.1484506,8.13182928 C83.1484506,7.72761554 82.8141703,7.40662228 82.4082585,7.40662228 L79.2087184,7.40662228 L79.2087184,5.68276958 L82.4918286,5.68276958 C82.8977404,5.68276958 83.2320207,5.36177632 83.2320207,4.96945123 C83.2320207,4.55334885 82.8977404,4.23235559 82.4918286,4.23235559 L78.4088334,4.23235559 C77.8357815,4.23235559 77.5134397,4.55334885 77.5134397,5.12400354 L77.5134397,11.2585414 C77.5134397,11.8410847 77.8357815,12.162078 78.4088334,12.162078 L82.4918286,12.162078 Z M87.6134804,12.162078 C90.1086441,12.162078 91.8397386,10.5927776 91.8397386,8.20316112 C91.8397386,5.81354462 90.1086441,4.23235559 87.6134804,4.23235559 L85.3690269,4.23235559 C84.795975,4.23235559 84.4736333,4.55334885 84.4736333,5.12400354 L84.4736333,11.2585414 C84.4736333,11.8410847 84.795975,12.162078 85.3690269,12.162078 L87.6134804,12.162078 Z M87.6134804,10.6759981 L86.168912,10.6759981 L86.168912,5.7184355 L87.6134804,5.7184355 C89.2490662,5.7184355 90.1086441,6.80030168 90.1086441,8.20316112 C90.1086441,9.54657736 89.1893733,10.6759981 87.6134804,10.6759981 Z" id="CONNECTEDFUELING-Copy-5" fill="#232729"></path>
                <path d="M140.187355,4.10158056 C141.34954,4.10158056 142.191531,4.50520933 142.831919,5.09878104 C142.986086,5.24123825 143.080958,5.45492407 143.080958,5.69235276 C143.080958,6.11972439 142.737047,6.47586742 142.298262,6.47586742 C142.096659,6.47586742 141.895056,6.39276738 141.752747,6.25031017 C141.34954,5.85855284 140.815884,5.59738128 140.187355,5.59738128 C138.752413,5.59738128 137.708818,6.70142467 137.708818,8.1972254 C137.708818,9.69302612 138.752413,10.7970695 140.187355,10.7970695 C140.946333,10.7970695 141.551144,10.4884122 141.871337,10.1916264 L141.871337,10.1916264 L141.871337,9.24191162 L140.424536,9.24191162 C140.033188,9.24191162 139.689276,8.92138289 139.689276,8.51775413 C139.689276,8.11412536 140.033188,7.76985376 140.424536,7.76985376 L140.424536,7.76985376 L142.748906,7.76985376 C143.235126,7.76985376 143.55532,8.10225392 143.55532,8.58898273 L143.55532,8.58898273 L143.55532,10.1678835 C143.55532,10.618998 143.448588,10.9632696 143.092817,11.2600555 C142.33384,11.9011129 141.373258,12.3047417 140.187355,12.3047417 C137.874845,12.3047417 135.9774,10.6902266 135.9774,8.1972254 C135.9774,5.69235276 137.874845,4.10158056 140.187355,4.10158056 Z M108.926956,4.1490663 C109.401317,4.1490663 109.780806,4.52895219 109.780806,5.00380957 L109.780806,5.00380957 L109.780806,8.98074006 C109.780806,10.9513982 108.654198,12.2928702 106.258674,12.2928702 C103.839432,12.2928702 102.712825,10.9395267 102.712825,8.9926115 L102.712825,8.9926115 L102.712825,5.00380957 C102.712825,4.52895219 103.092313,4.1490663 103.566675,4.1490663 C104.041036,4.1490663 104.420525,4.52895219 104.420525,5.00380957 L104.420525,5.00380957 L104.420525,8.93325433 C104.420525,10.0372977 105.025335,10.7970695 106.258674,10.7970695 C107.468295,10.7970695 108.073106,10.0372977 108.073106,8.93325433 L108.073106,8.93325433 L108.073106,5.00380957 C108.073106,4.52895219 108.452594,4.1490663 108.926956,4.1490663 Z M100.886534,4.23216634 C101.289741,4.23216634 101.621794,4.55269506 101.621794,4.96819526 C101.621794,5.3599526 101.289741,5.68048132 100.886534,5.68048132 L100.886534,5.68048132 L97.6253012,5.68048132 L97.6253012,7.4018393 L100.803521,7.4018393 C101.206728,7.4018393 101.538781,7.72236803 101.538781,8.12599679 C101.538781,8.52962556 101.206728,8.85015429 100.803521,8.85015429 L100.803521,8.85015429 L97.6253012,8.85015429 L97.6253012,11.3906412 C97.6253012,11.8417557 97.2576713,12.2335131 96.7951692,12.2335131 C96.3208081,12.2335131 95.9413191,11.8417557 95.9413191,11.3906412 L95.9413191,11.3906412 L95.9413191,5.12252391 C95.9413191,4.55269506 96.2615129,4.23216634 96.8307463,4.23216634 L96.8307463,4.23216634 Z M125.316133,4.1490663 C125.778635,4.1490663 126.146265,4.52895219 126.146265,4.99193813 L126.146265,4.99193813 L126.146265,11.3906412 C126.146265,11.8417557 125.778635,12.2335131 125.316133,12.2335131 C124.841772,12.2335131 124.462283,11.8417557 124.462283,11.3906412 L124.462283,11.3906412 L124.462283,4.99193813 C124.462283,4.52895219 124.841772,4.1490663 125.316133,4.1490663 Z M133.949506,4.1490663 C134.412008,4.1490663 134.791497,4.52895219 134.791497,4.99193813 L134.791497,4.99193813 L134.791497,11.2006983 C134.791497,11.7705271 134.328995,12.2335131 133.759762,12.2335131 C133.41585,12.2335131 133.107515,12.067313 132.917771,11.79427 L132.917771,11.79427 L129.395639,6.83201045 L129.395639,11.3906412 C129.395639,11.8417557 129.028009,12.2335131 128.565507,12.2335131 C128.091146,12.2335131 127.711657,11.8417557 127.711657,11.3906412 L127.711657,11.3906412 L127.711657,5.25310969 C127.711657,4.64766654 128.197877,4.1490663 128.814547,4.1490663 C129.182177,4.1490663 129.51423,4.32713781 129.715833,4.61205223 L129.715833,4.61205223 L133.107515,9.36062596 L133.107515,4.99193813 C133.107515,4.52895219 133.475145,4.1490663 133.949506,4.1490663 Z M116.291412,4.23216634 C116.694619,4.23216634 117.026672,4.55269506 117.026672,4.96819526 C117.026672,5.3599526 116.694619,5.68048132 116.291412,5.68048132 L116.291412,5.68048132 L113.03018,5.68048132 L113.03018,7.4018393 L116.208399,7.4018393 C116.611606,7.4018393 116.943659,7.72236803 116.943659,8.12599679 C116.943659,8.52962556 116.611606,8.85015429 116.208399,8.85015429 L116.208399,8.85015429 L113.03018,8.85015429 L113.03018,10.6902266 L116.291412,10.6902266 C116.694619,10.6902266 117.026672,11.0226268 117.026672,11.4143841 C117.026672,11.8180129 116.694619,12.150413 116.291412,12.150413 L116.291412,12.150413 L112.235625,12.150413 C111.666391,12.150413 111.346197,11.8298843 111.346197,11.248184 L111.346197,11.248184 L111.346197,5.12252391 C111.346197,4.55269506 111.666391,4.23216634 112.235625,4.23216634 L112.235625,4.23216634 Z M119.113861,4.1490663 C119.576363,4.1490663 119.943993,4.52895219 119.943993,4.99193813 L119.943993,4.99193813 L119.943993,10.6664837 L122.635993,10.6664837 C123.0392,10.6664837 123.371253,10.9988839 123.371253,11.4025127 C123.371253,11.8180129 123.0392,12.150413 122.635993,12.150413 L122.635993,12.150413 L119.149438,12.150413 C118.580205,12.150413 118.260011,11.8298843 118.260011,11.248184 L118.260011,11.248184 L118.260011,4.99193813 C118.260011,4.52895219 118.6395,4.1490663 119.113861,4.1490663 Z" id="Combined-Shape-Copy" fill="#00CCF0"></path>
            </g>
        </g>
    </g>
</svg>