<svg width="522" height="60" xmlns="http://www.w3.org/2000/svg"><g fill="none" fill-rule="evenodd"><path fill="#0D1117" d="M0 0H522V60H0z"/><g transform="translate(-.108)" fill-rule="nonzero"><path d="M1.59 20.385C6.902 4.695 23.926-3.72 39.616 1.59 55.305 6.902 63.72 23.926 58.41 39.615c-5.31 15.69-22.335 24.104-38.025 18.794a29.995 29.995 0 0 1-7.835-4.008 3.151 3.151 0 1 1 3.664-5.127 23.693 23.693 0 0 0 6.192 3.165c12.393 4.195 25.84-2.451 30.034-14.844 4.195-12.393-2.451-25.84-14.844-30.034-12.393-4.195-25.84 2.451-30.035 14.844a23.574 23.574 0 0 0-1.025 10.893c.01.07.017.138.022.207l.005.086.015.117.022.144.026.15c.085.467.208.907.36 1.28.195.477.408.769.501.808.02.008.089.012.242-.013.357-.057.829-.244 1.387-.56l.19-.11 8.679-5.242c.118-.071.24-.134.364-.19l.084-.034 7.954-4.826.054-.04.077-.053.12-.077 4.336-2.638c.72-.438 1.54-.666 2.565-.747.584-.045 1.236-.04 1.977.013l.314.025c1.358.117 2.999.387 4.938.803.88.19 1.813.407 2.79.652.953.238 1.922.494 2.893.764l.982.277.72.21.562.166.188.058a3.151 3.151 0 0 1-1.704 6.065l-.105-.029-.295-.089-.646-.19-.561-.163a110.86 110.86 0 0 0-3.561-.955 83.354 83.354 0 0 0-2.142-.507l-.445-.097c-1.584-.34-2.928-.567-3.976-.67l-.256-.023a8.814 8.814 0 0 0-1.063-.034l-.119.008-.035.003-1.382.84 1.83 3.022c.596.986.88 2.117.814 3.238l-.014.177-.018.168-.023.167c-.212 1.342-.928 2.518-2.02 3.282l-.124.083-.13.082-3.819 2.317c-1.622.984-3.653.906-5.3-.15l-.128-.085-.122-.086-5.074-3.677-5.93 3.581c-2.613 1.568-5.064 1.993-7.22 1.208l-.15-.057-.149-.06c-.998-.422-1.86-1.088-2.573-1.969a8.933 8.933 0 0 1-1.312-2.265 12.712 12.712 0 0 1-.726-2.532 13.538 13.538 0 0 1-.099-.626L.3 34.304l-.028-.265-.006-.063-.02-.15a29.857 29.857 0 0 1 1.117-12.742l.113-.355.115-.344zM27.235 31.97l-2.862 1.738 2.265 1.641 1.932-1.172-1.335-2.207z" fill="#00CCF0"/><path d="M90.176 14.5c4.943 0 8.308 1.843 10.688 4.436.554.562.87 1.418.87 2.282 0 .937-.382 1.785-1 2.4a3.4 3.4 0 0 1-2.406.993c-1.016 0-1.929-.407-2.584-1.16-1.341-1.497-3.291-2.51-5.568-2.51-2.376 0-4.465.949-5.958 2.544-1.494 1.598-2.387 3.839-2.387 6.412s.893 4.814 2.387 6.412c1.493 1.595 3.582 2.544 5.958 2.544 2.276 0 4.226-.972 5.608-2.55a3.489 3.489 0 0 1 2.544-1.12 3.4 3.4 0 0 1 3.405 3.393c0 .872-.318 1.689-.882 2.252-2.38 2.587-5.742 4.466-10.675 4.466-4.435 0-8.405-1.617-11.24-4.4C76.187 38.196 74.5 34.4 74.5 29.897c0-4.503 1.687-8.3 4.436-10.998 2.835-2.782 6.805-4.399 11.24-4.399zm28.358 0c4.53 0 8.439 1.618 11.215 4.35 2.77 2.727 4.418 6.568 4.418 11.047 0 4.479-1.648 8.32-4.418 11.046-2.776 2.733-6.685 4.35-11.215 4.35-4.511 0-8.41-1.619-11.182-4.355-2.761-2.726-4.408-6.565-4.408-11.041 0-4.477 1.647-8.316 4.408-11.042 2.771-2.736 6.67-4.355 11.182-4.355zm0 6.44c-2.469 0-4.507.918-5.938 2.463-1.492 1.61-2.32 3.891-2.32 6.494 0 2.587.832 4.872 2.329 6.488 1.43 1.544 3.465 2.468 5.929 2.468 2.468 0 4.515-.927 5.957-2.475 1.503-1.616 2.345-3.898 2.345-6.481 0-2.6-.838-4.877-2.336-6.487-1.442-1.55-3.493-2.47-5.966-2.47zM240.29 14.5c4.943 0 8.308 1.843 10.688 4.436.554.562.869 1.418.869 2.282a3.4 3.4 0 0 1-3.405 3.393c-1.016 0-1.929-.407-2.584-1.16-1.341-1.497-3.292-2.51-5.568-2.51-2.376 0-4.465.949-5.958 2.544-1.494 1.598-2.387 3.839-2.387 6.412s.893 4.814 2.387 6.412c1.493 1.595 3.582 2.544 5.958 2.544 2.276 0 4.226-.972 5.608-2.55a3.489 3.489 0 0 1 2.544-1.12 3.4 3.4 0 0 1 3.405 3.393c0 .872-.318 1.689-.882 2.252-2.38 2.587-5.742 4.466-10.675 4.466-4.435 0-8.405-1.617-11.24-4.4-2.749-2.698-4.436-6.495-4.436-10.997 0-4.503 1.687-8.3 4.436-10.998 2.835-2.782 6.805-4.399 11.24-4.399zm-79.48.173c.983 0 1.878.4 2.527 1.047a3.549 3.549 0 0 1 1.052 2.518v22.583a4.235 4.235 0 0 1-1.253 3.01 4.267 4.267 0 0 1-3.02 1.247 4.222 4.222 0 0 1-3.485-1.808L144.66 26.493v15.019c0 .963-.397 1.862-1.045 2.517a3.495 3.495 0 0 1-2.49 1.049 3.626 3.626 0 0 1-2.546-1.045 3.544 3.544 0 0 1-1.076-2.521V19.188a4.517 4.517 0 0 1 4.533-4.516 4.53 4.53 0 0 1 3.7 1.893l11.496 16.01V18.238a3.557 3.557 0 0 1 3.578-3.565zm31.61 0c.983 0 1.878.4 2.526 1.047A3.549 3.549 0 0 1 196 18.238v22.583a4.235 4.235 0 0 1-1.253 3.01 4.267 4.267 0 0 1-3.02 1.247 4.222 4.222 0 0 1-3.485-1.808L176.27 26.493v15.019c0 .963-.397 1.862-1.045 2.517a3.495 3.495 0 0 1-2.49 1.049 3.626 3.626 0 0 1-2.546-1.045 3.544 3.544 0 0 1-1.076-2.521V19.188a4.517 4.517 0 0 1 4.533-4.516 4.53 4.53 0 0 1 3.7 1.893l11.496 16.01V18.238a3.557 3.557 0 0 1 3.578-3.565zm83.291.302a3.24 3.24 0 0 1 2.283.95c.583.58.949 1.382.949 2.27 0 .87-.368 1.663-.957 2.24-.59.579-1.4.937-2.275.937h-5.527v20.14c0 .96-.406 1.859-1.063 2.513a3.566 3.566 0 0 1-2.515 1.053 3.626 3.626 0 0 1-2.546-1.045 3.544 3.544 0 0 1-1.076-2.521v-20.14h-5.527a3.258 3.258 0 0 1-2.275-.936 3.137 3.137 0 0 1-.957-2.24c0-.89.366-1.69.95-2.271a3.24 3.24 0 0 1 2.282-.95zm-56.407 0c.88 0 1.681.351 2.26.928.572.57.928 1.358.928 2.25 0 .85-.36 1.626-.943 2.188a3.232 3.232 0 0 1-2.245.902H207.88v5.26H219c.877 0 1.675.35 2.253.916.577.565.935 1.348.935 2.219 0 .87-.358 1.653-.935 2.219a3.212 3.212 0 0 1-2.253.915h-11.12v5.692h11.424c.87 0 1.664.355 2.242.921.585.573.946 1.362.946 2.213 0 .872-.36 1.667-.939 2.244a3.185 3.185 0 0 1-2.25.933h-14.829c-1.203 0-2.13-.358-2.764-.998-.631-.636-.988-1.567-.988-2.783v-22.28c0-1.197.358-2.12.993-2.751.634-.632 1.559-.988 2.76-.988zm80.82 0c.88 0 1.68.351 2.26.928.571.57.928 1.358.928 2.25 0 .85-.36 1.626-.944 2.188a3.232 3.232 0 0 1-2.245.902H288.7v5.26h11.12c.877 0 1.676.35 2.254.916.577.565.935 1.348.935 2.219 0 .87-.358 1.653-.935 2.219a3.212 3.212 0 0 1-2.253.915H288.7v5.692h11.423c.87 0 1.665.355 2.242.921.585.573.947 1.362.947 2.213 0 .872-.36 1.667-.939 2.244a3.185 3.185 0 0 1-2.25.933h-14.83c-1.203 0-2.13-.358-2.764-.998-.63-.636-.987-1.567-.987-2.783v-22.28c0-1.197.358-2.12.993-2.751.634-.632 1.559-.988 2.759-.988zm18.6 0c4.698 0 8.665 1.507 11.455 4.128 2.775 2.607 4.395 6.321 4.395 10.794 0 4.47-1.618 8.171-4.39 10.767-2.7 2.53-6.504 4.014-11.007 4.107l-.452.004h-8.152c-1.203 0-2.13-.358-2.765-.998-.585-.591-.935-1.436-.982-2.527l-.005-.256v-22.28c0-1.197.358-2.12.993-2.751.588-.586 1.428-.936 2.506-.983l.253-.005h8.152zm0 6.397h-4.746v17.006h4.747l.336-.005c2.446-.073 4.416-.946 5.812-2.33 1.573-1.559 2.414-3.756 2.414-6.146 0-2.496-.78-4.704-2.329-6.246-1.438-1.433-3.531-2.279-6.233-2.279z" stroke="#FFF" fill="#232729"/><path d="M509.7 15c4.22 0 7.279 1.466 9.605 3.622.56.517.904 1.293.904 2.156a2.841 2.841 0 0 1-2.842 2.845 2.84 2.84 0 0 1-1.982-.819c-1.464-1.423-3.402-2.371-5.685-2.371-5.212 0-9.002 4.01-9.002 9.442 0 5.433 3.79 9.443 9.002 9.443 2.756 0 4.953-1.121 6.116-2.2V33.67h-5.255c-1.421 0-2.67-1.164-2.67-2.63s1.249-2.716 2.67-2.716h8.442c1.766 0 2.93 1.207 2.93 2.975v5.735c0 1.638-.388 2.888-1.68 3.966-2.757 2.329-6.246 3.795-10.553 3.795-8.4 0-15.29-5.864-15.29-14.919C494.41 20.778 501.3 15 509.7 15zm-113.537.172a3.09 3.09 0 0 1 3.101 3.105V32.72c0 7.157-4.091 12.03-12.792 12.03-8.786 0-12.878-4.916-12.878-11.987V18.277a3.09 3.09 0 0 1 3.101-3.105 3.09 3.09 0 0 1 3.101 3.105v14.271c0 4.01 2.197 6.77 6.676 6.77 4.394 0 6.59-2.76 6.59-6.77V18.277a3.09 3.09 0 0 1 3.101-3.105zm-29.202.302a2.658 2.658 0 0 1 2.67 2.674c0 1.422-1.206 2.587-2.67 2.587h-11.845v6.251h11.543c1.465 0 2.67 1.165 2.67 2.63 0 1.466-1.205 2.63-2.67 2.63h-11.543v9.228c0 1.638-1.335 3.06-3.015 3.06-1.723 0-3.101-1.422-3.101-3.06V18.708c0-2.07 1.163-3.234 3.23-3.234zm88.727-.302c1.68 0 3.015 1.38 3.015 3.062v23.24c0 1.638-1.335 3.06-3.015 3.06-1.723 0-3.101-1.422-3.101-3.06v-23.24c0-1.682 1.378-3.062 3.101-3.062zm31.356 0c1.68 0 3.058 1.38 3.058 3.062v22.55c0 2.07-1.68 3.75-3.747 3.75a3.697 3.697 0 0 1-3.058-1.594l-12.792-18.023v16.557c0 1.638-1.335 3.06-3.015 3.06-1.723 0-3.101-1.422-3.101-3.06V19.182a4 4 0 0 1 4.005-4.01c1.336 0 2.542.647 3.274 1.682l12.318 17.247V18.234a3.044 3.044 0 0 1 3.058-3.062zm-64.133.302a2.658 2.658 0 0 1 2.67 2.674c0 1.422-1.206 2.587-2.67 2.587h-11.845v6.251h11.543c1.465 0 2.67 1.165 2.67 2.63 0 1.466-1.205 2.63-2.67 2.63h-11.543v6.684h11.845c1.464 0 2.67 1.207 2.67 2.63a2.685 2.685 0 0 1-2.67 2.673h-14.73c-2.068 0-3.231-1.164-3.231-3.277V18.708c0-2.07 1.163-3.234 3.23-3.234zm10.25-.302c1.68 0 3.016 1.38 3.016 3.062v20.61h9.777a2.685 2.685 0 0 1 2.67 2.673c0 1.509-1.206 2.716-2.67 2.716h-12.663c-2.067 0-3.23-1.164-3.23-3.277V18.234c0-1.682 1.378-3.062 3.1-3.062z" fill="#00CCF0"/></g></g></svg>
