<?xml version="1.0" encoding="UTF-8"?>
<svg width="522px" height="60px" viewBox="0 0 522 60" version="1.1" xmlns="http://www.w3.org/2000/svg" xmlns:xlink="http://www.w3.org/1999/xlink">
    <title>connected-fueling-logo</title>
    <g id="connected-fueling-logo" stroke="none" stroke-width="1" fill="none" fill-rule="evenodd">
        <g id="connected_fueling/compacts/connected_fueling_compact_rgb_color_black" transform="translate(-0.107692, 0.000000)" fill-rule="nonzero">
            <path d="M1.59069263,20.3846349 C6.90118766,4.69476908 23.9253459,-3.7192366 39.6153376,1.59137867 C55.3051737,6.9019591 63.7191344,23.9256748 58.4087111,39.6154773 C53.0982161,55.305192 36.0740869,63.7191404 20.3838195,58.4087006 C17.5709124,57.4563941 14.9381402,56.1085115 12.5489272,54.400965 C11.1330307,53.389038 10.8055565,51.4209075 11.8174944,50.0050242 C12.8294306,48.5891432 14.7975748,48.2616733 16.213469,49.2735987 C18.0993101,50.6213903 20.1783347,51.6854924 22.4045494,52.4391748 C34.7976689,56.6336805 48.2444824,49.9877464 52.4390583,37.594985 C56.6335995,25.2020888 49.9876934,11.755625 37.5947664,7.56095816 C25.2017358,3.36627033 11.7549354,10.012205 7.56034519,22.4051282 C6.36395669,25.9398557 6.01818174,29.6484706 6.53466572,33.2983712 C6.54441304,33.3672538 6.55188716,33.4362117 6.55709576,33.5051654 L6.56194913,33.5914819 L6.57715563,33.7077612 L6.59895221,33.8520113 L6.62476142,34.002189 C6.70966227,34.4687371 6.83278216,34.9090646 6.98480721,35.28154 C7.17986539,35.7594504 7.39278216,36.0508697 7.48602542,36.0902267 C7.50528041,36.0983541 7.57450259,36.1018489 7.72776346,36.0771327 C8.08489925,36.0195378 8.556851,35.8334743 9.11539453,35.5166714 L9.30445995,35.4064264 L17.9835875,30.1651739 C18.1016477,30.0938784 18.2234355,30.0307138 18.3483342,29.9758553 L18.4316218,29.9408992 L26.38608,25.114948 L26.440375,25.0750963 L26.5167511,25.0222092 L26.6372715,24.9451005 L30.9732609,22.3070633 C31.6938603,21.8686994 32.5122183,21.6406372 33.5380123,21.5604532 C34.1218057,21.5148194 34.7742179,21.5196029 35.5149494,21.5726541 L35.8294543,21.5976089 C37.1871887,21.7154787 38.8279876,21.9845768 40.7668905,22.4012561 C41.6479162,22.5905926 42.579741,22.808298 43.5578888,23.0527535 C44.5097011,23.2906273 45.4793402,23.5470991 46.4501883,23.8168493 L47.4318137,24.0939831 L48.151894,24.3030944 L48.713595,24.4703143 L48.9020632,24.5276062 C50.5653499,25.0397064 51.498568,26.8031948 50.9864617,28.4664678 C50.4908377,30.076208 48.8211132,31.0047291 47.198387,30.5930898 L47.0926362,30.5643369 L46.7983597,30.4754096 L46.1521478,30.2844029 L45.5908131,30.1223757 C44.3980273,29.7814913 43.1971062,29.4586877 42.0298186,29.166963 C41.28339,28.980418 40.5679257,28.811033 39.8877936,28.6600761 L39.4427143,28.562839 C37.8593891,28.222575 36.5151255,27.9957384 35.4672731,27.893158 L35.2112666,27.8700863 C34.7835054,27.8350393 34.4208143,27.8241299 34.1478755,27.8363431 L34.0291565,27.8435493 L33.9935242,27.8467283 L32.6121843,28.6862773 L34.4412532,31.7089897 C35.0378753,32.6953001 35.3217649,33.8262221 35.2557703,34.946882 L35.242437,35.1237205 L35.2243025,35.2918555 L35.2006472,35.4594542 C34.988857,36.8009629 34.2729513,37.9768388 33.1803216,38.7405116 L33.0573744,38.8236553 L32.92625,38.9062175 L29.1084372,41.2230063 C27.4862926,42.2073232 25.4548897,42.1288484 23.8089065,41.072984 L23.6797757,40.9875972 L23.557515,40.9017074 L18.4835619,37.2250497 L12.5545966,40.8059847 C9.94098021,42.3740064 7.48980668,42.7993159 5.33409721,42.0139065 L5.18417994,41.9571453 L5.03523148,41.8964501 C4.03747838,41.4753082 3.17452617,40.8086988 2.46199101,39.9281127 C1.93319311,39.2745982 1.49965092,38.5202626 1.14978199,37.6630515 C0.826266607,36.8704091 0.586786517,36.0235692 0.42427122,35.1305133 C0.385437426,34.9171134 0.35244477,34.708199 0.325224438,34.5050049 L0.299925665,34.3037633 L0.272213839,34.0392765 L0.266442049,33.9756595 L0.246329591,33.8255004 C-0.305601434,29.5565501 0.0713221332,25.2275847 1.36345525,21.0836212 L1.47645053,20.7288831 L1.59069263,20.3846349 Z M27.2341377,31.9714882 L24.3716073,33.7087948 L26.6372734,35.3502809 L28.5689105,34.1780467 L27.2341377,31.9714882 Z" id="Combined-Shape-Copy-5" fill="#00CCF0"></path>
            <path d="M90.1761638,14.5 C95.1190249,14.5 98.4838009,16.3426591 100.863989,18.9357273 C101.418463,19.4976266 101.733083,20.3542587 101.733083,21.217787 C101.733083,22.1548986 101.351749,23.0034664 100.734946,23.6176895 C100.118902,24.2311555 99.2679196,24.6107852 98.3279318,24.6107852 C97.3121107,24.6107852 96.3992098,24.2040679 95.7440942,23.4512504 C94.4029139,21.9537934 92.4525417,20.9405637 90.1761638,20.9405637 C87.8002263,20.9405637 85.7105892,21.8897117 84.2184445,23.4848718 C82.7237387,25.0827699 81.8306283,27.3236841 81.8306283,29.8967815 C81.8306283,32.4698788 82.7237387,34.710793 84.2184445,36.3086911 C85.7105892,37.9038512 87.8002263,38.8529993 90.1761638,38.8529993 C92.4518026,38.8529993 94.4021371,37.8814782 95.7837053,36.3033677 C96.4015479,35.6365412 97.3142145,35.1827777 98.3279318,35.1827777 C99.2679196,35.1827777 100.118902,35.5624075 100.734946,36.1758734 C101.351749,36.7900965 101.733083,37.6386644 101.733083,38.5757759 C101.733083,39.4484091 101.415415,40.2645107 100.850834,40.8284262 C98.4714706,43.4146302 95.1094313,45.2935629 90.1761638,45.2935629 C85.7406113,45.2935629 81.7706392,43.6768263 78.9358632,40.8942365 C76.1871735,38.1961482 74.5,34.3992694 74.5,29.8967815 C74.5,25.3942935 76.1871735,21.5974147 78.9358632,18.8993265 C81.7706392,16.1167366 85.7406113,14.5 90.1761638,14.5 Z M118.53391,14.5 C123.064392,14.5 126.972875,16.1177632 129.748858,18.85045 C132.518548,21.5769417 134.166713,25.4179619 134.166713,29.8967815 C134.166713,34.375601 132.518548,38.2166212 129.748858,40.9431129 C126.972875,43.6757997 123.064392,45.2935629 118.53391,45.2935629 C114.022918,45.2935629 110.123273,43.6741392 107.352213,40.9384593 C104.590813,38.2123171 102.944467,34.3730899 102.944467,29.8967815 C102.944467,25.4204731 104.590813,21.5812458 107.352213,18.8551037 C110.123273,16.1194238 114.022918,14.5 118.53391,14.5 Z M118.53391,20.9405637 C116.065316,20.9405637 114.026805,21.8579746 112.595636,23.4030981 C111.104206,25.0132798 110.275095,27.2939713 110.275095,29.8967815 C110.275095,32.483893 111.108047,34.7685195 112.604913,36.3845705 C114.035497,37.9290616 116.070384,38.8529993 118.53391,38.8529993 C121.001612,38.8529993 123.0491,37.9260911 124.490579,36.3775033 C125.994252,34.7621002 126.836085,32.4803958 126.836085,29.8967815 C126.836085,27.2975001 125.998137,25.0197059 124.499916,23.41016 C123.057836,21.8609271 121.006687,20.9405637 118.53391,20.9405637 Z M240.290104,14.5 C245.232965,14.5 248.597741,16.3426591 250.97793,18.9357273 C251.532403,19.4976266 251.847023,20.3542587 251.847023,21.217787 C251.847023,22.1548986 251.465689,23.0034664 250.848886,23.6176895 C250.232843,24.2311555 249.38186,24.6107852 248.441872,24.6107852 C247.426051,24.6107852 246.51315,24.2040679 245.858034,23.4512504 C244.516854,21.9537934 242.566482,20.9405637 240.290104,20.9405637 C237.914167,20.9405637 235.824529,21.8897117 234.332385,23.4848718 C232.837679,25.0827699 231.944569,27.3236841 231.944569,29.8967815 C231.944569,32.4698788 232.837679,34.710793 234.332385,36.3086911 C235.824529,37.9038512 237.914167,38.8529993 240.290104,38.8529993 C242.565743,38.8529993 244.516077,37.8814782 245.897646,36.3033677 C246.515488,35.6365412 247.428155,35.1827777 248.441872,35.1827777 C249.38186,35.1827777 250.232843,35.5624075 250.848886,36.1758734 C251.465689,36.7900965 251.847023,37.6386644 251.847023,38.5757759 C251.847023,39.4484091 251.529356,40.2645107 250.964774,40.8284262 C248.585411,43.4146302 245.223372,45.2935629 240.290104,45.2935629 C235.854552,45.2935629 231.884579,43.6768263 229.049803,40.8942365 C226.301114,38.1961482 224.61394,34.3992694 224.61394,29.8967815 C224.61394,25.3942935 226.301114,21.5974147 229.049803,18.8993265 C231.884579,16.1167366 235.854552,14.5 240.290104,14.5 Z M160.810366,14.6727163 C161.792981,14.6727163 162.687733,15.0736119 163.336621,15.7197859 C163.986273,16.3667196 164.388959,17.2588785 164.388959,18.2384308 L164.388959,18.2384308 L164.388959,40.8210879 C164.388959,41.9955552 163.910121,43.0600906 163.136079,43.8308948 C162.362797,44.6009414 161.294941,45.0776675 160.116599,45.0776675 C158.691406,45.0776675 157.414252,44.3917253 156.63099,43.270452 L156.63099,43.270452 L144.659946,26.4927985 L144.659946,41.5119531 C144.659946,42.4748133 144.262976,43.3744991 143.615247,44.0287325 C142.978249,44.6721277 142.100584,45.0776675 141.124714,45.0776675 C140.128688,45.0776675 139.230992,44.672928 138.578827,44.0325108 C137.911343,43.377051 137.50276,42.4756963 137.50276,41.5119531 L137.50276,41.5119531 L137.50276,19.1883704 C137.50276,17.9441283 138.007466,16.8102234 138.831277,15.9898587 C139.646531,15.1780154 140.774349,14.6727163 142.035284,14.6727163 C143.546311,14.6727163 144.909853,15.4024601 145.73683,16.5650822 L145.73683,16.5650822 L157.231773,32.5746701 L157.231773,18.2384308 C157.231773,17.2528939 157.628193,16.3567171 158.278373,15.7092568 C158.919823,15.0704904 159.808717,14.6727163 160.810366,14.6727163 Z M192.420147,14.6727163 C193.402762,14.6727163 194.297514,15.0736119 194.946402,15.7197859 C195.596054,16.3667196 195.998741,17.2588785 195.998741,18.2384308 L195.998741,18.2384308 L195.998741,40.8210879 C195.998741,41.9955552 195.519902,43.0600906 194.74586,43.8308948 C193.972579,44.6009414 192.904722,45.0776675 191.72638,45.0776675 C190.301188,45.0776675 189.024034,44.3917253 188.240771,43.270452 L188.240771,43.270452 L176.269728,26.4927985 L176.269728,41.5119531 C176.269728,42.4748133 175.872757,43.3744991 175.225028,44.0287325 C174.58803,44.6721277 173.710365,45.0776675 172.734495,45.0776675 C171.738469,45.0776675 170.840773,44.672928 170.188608,44.0325108 C169.521124,43.377051 169.112541,42.4756963 169.112541,41.5119531 L169.112541,41.5119531 L169.112541,19.1883704 C169.112541,17.9441283 169.617247,16.8102234 170.441058,15.9898587 C171.256312,15.1780154 172.38413,14.6727163 173.645065,14.6727163 C175.156092,14.6727163 176.519634,15.4024601 177.346612,16.5650822 L177.346612,16.5650822 L188.841554,32.5746701 L188.841554,18.2384308 C188.841554,17.2528939 189.237974,16.3567171 189.888154,15.7092568 C190.529604,15.0704904 191.418498,14.6727163 192.420147,14.6727163 Z M275.71127,14.9749698 C276.58914,14.9749698 277.402685,15.3363625 277.993592,15.9247972 C278.577006,16.5057703 278.94298,17.3067044 278.94298,18.1952517 C278.94298,19.0641679 278.574989,19.8583013 277.985912,20.4356032 C277.395992,21.0137309 276.585526,21.3723544 275.71127,21.3723544 L275.71127,21.3723544 L270.184165,21.3723544 L270.184165,41.5119531 C270.184165,42.4723375 269.77823,43.3707593 269.120926,44.0253134 C268.472632,44.670896 267.582058,45.0776675 266.605572,45.0776675 C265.609546,45.0776675 264.711851,44.672928 264.059685,44.0325108 C263.392201,43.377051 262.983618,42.4756963 262.983618,41.5119531 L262.983618,41.5119531 L262.983618,21.3723544 L257.456513,21.3723544 C256.582258,21.3723544 255.771792,21.0137309 255.181872,20.4356032 C254.592794,19.8583013 254.224804,19.0641679 254.224804,18.1952517 C254.224804,17.3067044 254.590778,16.5057703 255.174192,15.9247972 C255.765098,15.3363625 256.578644,14.9749698 257.456513,14.9749698 L257.456513,14.9749698 Z M219.303638,14.9749698 C220.183707,14.9749698 220.985025,15.3263765 221.564043,15.902973 C222.13571,16.4722482 222.491987,17.2613097 222.491987,18.1520726 C222.491987,19.0034598 222.131781,19.7788585 221.548689,20.34078 C220.971614,20.8969041 220.176328,21.2428172 219.303638,21.2428172 L219.303638,21.2428172 L207.879509,21.2428172 L207.879509,26.5037833 L219.000114,26.5037833 C219.876566,26.5037833 220.674926,26.8524978 221.252994,27.4188629 C221.830236,27.9844194 222.188463,28.766564 222.188463,29.637707 C222.188463,30.50885 221.830236,31.2909946 221.252994,31.8565511 C220.674926,32.4229162 219.876566,32.7716307 219.000114,32.7716307 L219.000114,32.7716307 L207.879509,32.7716307 L207.879509,38.4643876 L219.303638,38.4643876 C220.173857,38.4643876 220.968064,38.8191251 221.545599,39.3849676 C222.130736,39.9582586 222.491987,40.7467441 222.491987,41.5983113 C222.491987,42.4696879 222.132762,43.2648208 221.55347,43.8416895 C220.974941,44.4177976 220.177625,44.775414 219.303638,44.775414 L219.303638,44.775414 L204.474357,44.775414 C203.270814,44.775414 202.344044,44.4170639 201.709647,43.7768968 C201.07903,43.1405449 200.722322,42.2099393 200.722322,40.9938042 L200.722322,40.9938042 L200.722322,18.7134006 C200.722322,17.5167816 201.08046,16.5945932 201.71504,15.9626682 C202.348937,15.3314227 203.274029,14.9749698 204.474357,14.9749698 L204.474357,14.9749698 Z M300.123214,14.9749698 C301.003283,14.9749698 301.804601,15.3263765 302.38362,15.902973 C302.955286,16.4722482 303.311563,17.2613097 303.311563,18.1520726 C303.311563,19.0034598 302.951357,19.7788585 302.368266,20.34078 C301.79119,20.8969041 300.995905,21.2428172 300.123214,21.2428172 L300.123214,21.2428172 L288.699085,21.2428172 L288.699085,26.5037833 L299.819691,26.5037833 C300.696142,26.5037833 301.494502,26.8524978 302.07257,27.4188629 C302.649813,27.9844194 303.00804,28.766564 303.00804,29.637707 C303.00804,30.50885 302.649813,31.2909946 302.07257,31.8565511 C301.494502,32.4229162 300.696142,32.7716307 299.819691,32.7716307 L299.819691,32.7716307 L288.699085,32.7716307 L288.699085,38.4643876 L300.123214,38.4643876 C300.993433,38.4643876 301.78764,38.8191251 302.365175,39.3849676 C302.950312,39.9582586 303.311563,40.7467441 303.311563,41.5983113 C303.311563,42.4696879 302.952338,43.2648208 302.373046,43.8416895 C301.794518,44.4177976 300.997201,44.775414 300.123214,44.775414 L300.123214,44.775414 L285.293934,44.775414 C284.09039,44.775414 283.163621,44.4170639 282.529223,43.7768968 C281.898606,43.1405449 281.541899,42.2099393 281.541899,40.9938042 L281.541899,40.9938042 L281.541899,18.7134006 C281.541899,17.5167816 281.900037,16.5945932 282.534616,15.9626682 C283.168514,15.3314227 284.093605,14.9749698 285.293934,14.9749698 L285.293934,14.9749698 Z M318.724855,14.9749698 C323.421589,14.9749698 327.389078,16.4816872 330.179119,19.1030865 C332.953676,21.7099373 334.57446,25.4241935 334.57446,29.8967815 C334.57446,34.3666703 332.955719,38.0680858 330.184627,40.6638862 C327.484453,43.1932552 323.679732,44.6776176 319.177398,44.7707509 L318.724855,44.775414 L310.573087,44.775414 C309.369543,44.775414 308.442773,44.4170639 307.808376,43.7768968 C307.222803,43.1859986 306.873407,42.3413816 306.826481,41.250031 L306.821052,40.9938042 L306.821052,18.7134006 C306.821052,17.5167816 307.179189,16.5945932 307.813769,15.9626682 C308.402388,15.3765117 309.242088,15.0272937 310.320092,14.980396 L310.573087,14.9749698 L318.724855,14.9749698 Z M318.724855,21.3723544 L313.978238,21.3723544 L313.978238,38.3780294 L318.724855,38.3780294 L319.061351,38.3730198 C321.507394,38.2997435 323.4769,37.4269798 324.873362,36.0430135 C326.446025,34.4844222 327.287192,32.2871756 327.287192,29.8967815 C327.287192,27.4006868 326.507055,25.192914 324.958273,23.6506113 C323.520137,22.2184917 321.426626,21.3723544 318.724855,21.3723544 L318.724855,21.3723544 Z" id="CONNECTEDFUELING-Copy-5" stroke="#FFFFFF" fill="#232729"></path>
            <path d="M509.699887,15 C513.920897,15 516.978976,16.465964 519.304839,18.6217935 C519.864769,19.1391925 520.209341,19.9152911 520.209341,20.7776229 C520.209341,22.3298201 518.960267,23.6233178 517.36662,23.6233178 C516.634404,23.6233178 515.902188,23.3215017 515.385329,22.8041026 C513.920897,21.3812552 511.982678,20.4326902 509.699887,20.4326902 C504.488232,20.4326902 500.697937,24.442533 500.697937,29.8752232 C500.697937,35.3079134 504.488232,39.3177561 509.699887,39.3177561 C512.456465,39.3177561 514.653113,38.1967248 515.816045,37.1188101 L515.816045,37.1188101 L515.816045,33.669483 L510.561318,33.669483 C509.139957,33.669483 507.890883,32.5053351 507.890883,31.0393711 C507.890883,29.573407 509.139957,28.323026 510.561318,28.323026 L510.561318,28.323026 L519.003338,28.323026 C520.769271,28.323026 521.932202,29.5302905 521.932202,31.2980706 L521.932202,31.2980706 L521.932202,37.0325769 C521.932202,38.6710073 521.544558,39.9213884 520.252412,40.9993031 C517.495834,43.3275989 514.00704,44.7935629 509.699887,44.7935629 C501.300938,44.7935629 494.409493,38.9297068 494.409493,29.8752232 C494.409493,20.7776229 501.300938,15 509.699887,15 Z M396.163328,15.1724664 C397.886189,15.1724664 399.264478,16.5521972 399.264478,18.2768608 L399.264478,18.2768608 L399.264478,32.720918 C399.264478,39.8782718 395.172683,44.7504463 386.472233,44.7504463 C377.685641,44.7504463 373.593845,39.8351552 373.593845,32.7640346 L373.593845,32.7640346 L373.593845,18.2768608 C373.593845,16.5521972 374.972134,15.1724664 376.694995,15.1724664 C378.417857,15.1724664 379.796146,16.5521972 379.796146,18.2768608 L379.796146,18.2768608 L379.796146,32.5484517 C379.796146,36.5582945 381.992794,39.3177561 386.472233,39.3177561 C390.865529,39.3177561 393.062178,36.5582945 393.062178,32.5484517 L393.062178,32.5484517 L393.062178,18.2768608 C393.062178,16.5521972 394.440467,15.1724664 396.163328,15.1724664 Z M366.960829,15.4742825 C368.425261,15.4742825 369.631264,16.6384304 369.631264,18.147511 C369.631264,19.5703584 368.425261,20.7345063 366.960829,20.7345063 L366.960829,20.7345063 L355.116158,20.7345063 L355.116158,26.9864117 L366.659328,26.9864117 C368.12376,26.9864117 369.329763,28.1505596 369.329763,29.6165236 C369.329763,31.0824877 368.12376,32.2466356 366.659328,32.2466356 L366.659328,32.2466356 L355.116158,32.2466356 L355.116158,41.4735856 C355.116158,43.112016 353.78094,44.5348634 352.10115,44.5348634 C350.378289,44.5348634 349,43.112016 349,41.4735856 L349,41.4735856 L349,18.7080266 C349,16.6384304 350.162931,15.4742825 352.230365,15.4742825 L352.230365,15.4742825 Z M455.688186,15.1724664 C457.367975,15.1724664 458.703193,16.5521972 458.703193,18.2337442 L458.703193,18.2337442 L458.703193,41.4735856 C458.703193,43.112016 457.367975,44.5348634 455.688186,44.5348634 C453.965324,44.5348634 452.587035,43.112016 452.587035,41.4735856 L452.587035,41.4735856 L452.587035,18.2337442 C452.587035,16.5521972 453.965324,15.1724664 455.688186,15.1724664 Z M487.044261,15.1724664 C488.724051,15.1724664 490.10234,16.5521972 490.10234,18.2337442 L490.10234,18.2337442 L490.10234,40.7837202 C490.10234,42.8533164 488.42255,44.5348634 486.355117,44.5348634 C485.106042,44.5348634 483.986182,43.9312312 483.297038,42.9395496 L483.297038,42.9395496 L470.504793,24.9168154 L470.504793,41.4735856 C470.504793,43.112016 469.169575,44.5348634 467.489785,44.5348634 C465.766924,44.5348634 464.388635,43.112016 464.388635,41.4735856 L464.388635,41.4735856 L464.388635,19.1823091 C464.388635,16.9833631 466.154568,15.1724664 468.394288,15.1724664 C469.729505,15.1724664 470.935508,15.8192152 471.667724,16.8540133 L471.667724,16.8540133 L483.986182,34.1006489 L483.986182,18.2337442 C483.986182,16.5521972 485.3214,15.1724664 487.044261,15.1724664 Z M422.910749,15.4742825 C424.375182,15.4742825 425.581184,16.6384304 425.581184,18.147511 C425.581184,19.5703584 424.375182,20.7345063 422.910749,20.7345063 L422.910749,20.7345063 L411.066078,20.7345063 L411.066078,26.9864117 L422.609249,26.9864117 C424.073681,26.9864117 425.279684,28.1505596 425.279684,29.6165236 C425.279684,31.0824877 424.073681,32.2466356 422.609249,32.2466356 L422.609249,32.2466356 L411.066078,32.2466356 L411.066078,38.9297068 L422.910749,38.9297068 C424.375182,38.9297068 425.581184,40.1369713 425.581184,41.5598188 C425.581184,43.0257828 424.375182,44.2330473 422.910749,44.2330473 L422.910749,44.2330473 L408.180285,44.2330473 C406.112852,44.2330473 404.94992,43.0688994 404.94992,40.9561865 L404.94992,40.9561865 L404.94992,18.7080266 C404.94992,16.6384304 406.112852,15.4742825 408.180285,15.4742825 L408.180285,15.4742825 Z M433.161774,15.1724664 C434.841564,15.1724664 436.176781,16.5521972 436.176781,18.2337442 L436.176781,18.2337442 L436.176781,38.8434737 L445.954019,38.8434737 C447.418451,38.8434737 448.624454,40.0507382 448.624454,41.5167022 C448.624454,43.0257828 447.418451,44.2330473 445.954019,44.2330473 L445.954019,44.2330473 L433.290989,44.2330473 C431.223555,44.2330473 430.060624,43.0688994 430.060624,40.9561865 L430.060624,40.9561865 L430.060624,18.2337442 C430.060624,16.5521972 431.438913,15.1724664 433.161774,15.1724664 Z" id="Combined-Shape-Copy" fill="#00CCF0"></path>
        </g>
    </g>
</svg>
